<?xml version="1.0" encoding="UTF-8" standalone="no"?>
<!-- Created with Inkscape (http://www.inkscape.org/) -->

<svg
   width="128"
   height="128"
   viewBox="0 0 33.866666 33.866666"
   version="1.1"
   id="svg1"
   xml:space="preserve"
   inkscape:export-filename="trayTemplate.png"
   inkscape:export-xdpi="12"
   inkscape:export-ydpi="12"
   sodipodi:docname="tray.svg"
   inkscape:version="1.3.2 (091e20e, 2023-11-25)"
   xmlns:inkscape="http://www.inkscape.org/namespaces/inkscape"
   xmlns:sodipodi="http://sodipodi.sourceforge.net/DTD/sodipodi-0.dtd"
   xmlns="http://www.w3.org/2000/svg"
   xmlns:svg="http://www.w3.org/2000/svg"><sodipodi:namedview
     id="namedview1"
     pagecolor="#ffffff"
     bordercolor="#000000"
     borderopacity="0.25"
     inkscape:showpageshadow="2"
     inkscape:pageopacity="0.0"
     inkscape:pagecheckerboard="0"
     inkscape:deskcolor="#d1d1d1"
     inkscape:document-units="mm"
     inkscape:zoom="3.2597136"
     inkscape:cx="47.243414"
     inkscape:cy="23.928482"
     inkscape:window-width="1920"
     inkscape:window-height="1027"
     inkscape:window-x="0"
     inkscape:window-y="25"
     inkscape:window-maximized="0"
     inkscape:current-layer="layer1"
     showguides="true" /><defs
     id="defs1" /><g
     inkscape:label="Layer 1"
     inkscape:groupmode="layer"
     id="layer1"><text
       xml:space="preserve"
       style="font-style:italic;font-variant:normal;font-weight:bold;font-stretch:normal;font-size:47.0868px;line-height:0;font-family:AppleGothic;-inkscape-font-specification:'AppleGothic Bold Italic';font-variant-ligatures:normal;font-variant-caps:normal;font-variant-numeric:normal;font-variant-east-asian:normal;text-align:center;text-anchor:middle;opacity:1;fill:#5f5f5f;stroke:none;stroke-width:1;stroke-dasharray:none;stroke-opacity:1"
       x="2.5757468"
       y="-23.974253"
       id="text35"><tspan
         sodipodi:role="line"
         id="tspan35"
         style="font-style:italic;font-variant:normal;font-weight:bold;font-stretch:normal;font-family:Symbol;-inkscape-font-specification:'Symbol Bold Italic';stroke:none;stroke-width:1"
         x="2.5757468"
         y="-23.974253" /></text><path
       style="fill:#000000;stroke-width:2.56276"
       d="M 16.652762,32.38258 C 15.445849,29.225072 14.109794,26.411782 13.06639,24.830866 12.146584,23.43722 10.424207,21.703625 9.0671856,20.80561 7.3551422,19.672657 5.3013713,18.658439 2.3599112,17.493344 1.5902634,17.188492 0.94839269,16.929234 0.93353124,16.917221 0.91866672,16.905178 1.743809,16.558058 2.7671729,16.145784 10.69731,12.95104 12.973232,10.65876 16.182394,2.6341303 c 0.318405,-0.7961882 0.619863,-1.554502 0.669903,-1.68514314 0.07965,-0.20794801 0.180905,-0.009615 0.813085,1.59237504 0.878639,2.226586 2.325548,5.1897343 3.108406,6.3657572 2.16242,3.2484236 4.686868,4.9840036 10.817275,7.4369606 0.753752,0.3016 1.357642,0.559917 1.341972,0.57404 -0.01563,0.0141 -0.853624,0.359561 -1.862129,0.767647 -4.494873,1.818818 -6.819931,3.208115 -8.70569,5.201932 -1.70535,1.803074 -3.207339,4.516493 -4.855147,8.771077 -0.282669,0.729836 -0.539325,1.326977 -0.570349,1.326977 -0.03101,0 -0.160147,-0.271426 -0.286958,-0.603173 z m 3.293272,-12.479262 c 0.02384,-0.02384 2.244597,-0.703401 4.934759,-1.509876 2.690163,-0.806474 4.83603,-1.495381 4.768597,-1.530901 -0.06743,-0.03552 -2.285096,-0.710883 -4.928142,-1.500808 L 19.915712,13.925512 19.761615,13.394723 C 18.341269,8.5021102 16.938438,3.9201304 16.89555,4.0334898 c -0.03012,0.079618 -0.704438,2.3314547 -1.49848,5.0040773 -0.794046,2.6726249 -1.457395,4.8705499 -1.474114,4.8842749 -0.01665,0.01384 -2.180104,0.666561 -4.8075234,1.450737 -2.6274188,0.784179 -4.8322952,1.454753 -4.8997298,1.490162 -0.067426,0.03542 2.0784386,0.724227 4.7685981,1.530701 2.6901621,0.806475 4.9111551,1.486272 4.9355381,1.510652 0.02435,0.02434 0.691796,2.228596 1.483135,4.898244 0.79134,2.669646 1.462991,4.919046 1.492559,4.998667 0.02958,0.07963 0.718226,-2.104991 1.530346,-4.854684 0.812122,-2.749695 1.496188,-5.019046 1.520148,-5.043003 z"
       id="path35" /></g></svg>
