<?xml version="1.0" encoding="UTF-8" standalone="no"?>
<!-- Created with Inkscape (http://www.inkscape.org/) -->

<svg
   width="128"
   height="128"
   viewBox="0 0 33.866666 33.866666"
   version="1.1"
   id="svg1"
   xml:space="preserve"
   inkscape:export-filename="trayTemplate@2x.png"
   inkscape:export-xdpi="24"
   inkscape:export-ydpi="24"
   sodipodi:docname="tray.svg"
   inkscape:version="1.3.2 (091e20e, 2023-11-25)"
   xmlns:inkscape="http://www.inkscape.org/namespaces/inkscape"
   xmlns:sodipodi="http://sodipodi.sourceforge.net/DTD/sodipodi-0.dtd"
   xmlns="http://www.w3.org/2000/svg"
   xmlns:svg="http://www.w3.org/2000/svg"><sodipodi:namedview
     id="namedview1"
     pagecolor="#ffffff"
     bordercolor="#000000"
     borderopacity="0.25"
     inkscape:showpageshadow="2"
     inkscape:pageopacity="0.0"
     inkscape:pagecheckerboard="0"
     inkscape:deskcolor="#d1d1d1"
     inkscape:document-units="mm"
     inkscape:zoom="5.921875"
     inkscape:cx="63.831135"
     inkscape:cy="68.390501"
     inkscape:window-width="1920"
     inkscape:window-height="1027"
     inkscape:window-x="0"
     inkscape:window-y="25"
     inkscape:window-maximized="0"
     inkscape:current-layer="layer1"
     showguides="true" /><defs
     id="defs1" /><g
     inkscape:label="Layer 1"
     inkscape:groupmode="layer"
     id="layer1"><path
       id="path2"
       style="fill:#000000;fill-opacity:1;stroke:none;stroke-width:7.20615"
       d="M 16.933333,7.4737643 A 16.933485,9.4598412 0 0 0 3.3333341e-8,16.933333 16.933485,9.4598412 0 0 0 16.933333,26.392902 16.933485,9.4598412 0 0 0 33.866667,16.933333 16.933485,9.4598412 0 0 0 16.933333,7.4737643 Z m 0,4.9453137 A 13.24532,4.514527 0 0 1 30.178799,16.933333 13.24532,4.514527 0 0 1 16.933333,21.447589 13.24532,4.514527 0 0 1 3.6878685,16.933333 13.24532,4.514527 0 0 1 16.933333,12.419078 Z" /></g></svg>
