<?xml version="1.0" encoding="UTF-8" standalone="no"?>
<!-- Created with Inkscape (http://www.inkscape.org/) -->

<svg
   width="128"
   height="128"
   viewBox="0 0 33.866666 33.866666"
   version="1.1"
   id="svg1"
   xml:space="preserve"
   inkscape:export-filename="trayTemplate.png"
   inkscape:export-xdpi="18"
   inkscape:export-ydpi="18"
   sodipodi:docname="tray.svg"
   inkscape:version="1.3.2 (091e20e, 2023-11-25)"
   xmlns:inkscape="http://www.inkscape.org/namespaces/inkscape"
   xmlns:sodipodi="http://sodipodi.sourceforge.net/DTD/sodipodi-0.dtd"
   xmlns="http://www.w3.org/2000/svg"
   xmlns:svg="http://www.w3.org/2000/svg"><sodipodi:namedview
     id="namedview1"
     pagecolor="#ffffff"
     bordercolor="#000000"
     borderopacity="0.25"
     inkscape:showpageshadow="2"
     inkscape:pageopacity="0.0"
     inkscape:pagecheckerboard="0"
     inkscape:deskcolor="#d1d1d1"
     inkscape:document-units="mm"
     inkscape:zoom="5.921875"
     inkscape:cx="63.915567"
     inkscape:cy="68.390501"
     inkscape:window-width="1392"
     inkscape:window-height="1027"
     inkscape:window-x="0"
     inkscape:window-y="25"
     inkscape:window-maximized="0"
     inkscape:current-layer="layer1"
     showguides="true" /><defs
     id="defs1" /><g
     inkscape:label="Layer 1"
     inkscape:groupmode="layer"
     id="layer1"><path
       d="M 2.5545535,16.239765 H 4.435741 v -0.430223 c 0,-0.573629 0.1164167,-1.121185 0.3280834,-1.621808 0.2196041,-0.518874 0.53975,-0.988208 0.9392708,-1.379319 0.396875,-0.391112 0.873125,-0.709215 1.3996458,-0.925631 0.508,-0.20859 1.063625,-0.323317 1.6457084,-0.323317 h 7.4850626 v -0.0365 -2.6413035 C 16.111804,8.8373335 15.995387,8.782578 15.884262,8.7200002 15.728158,8.6287409 15.585283,8.5192297 15.458283,8.3940742 15.262491,8.201126 15.103741,7.9690667 14.995262,7.7109333 14.892075,7.4632295 14.833866,7.1894517 14.833866,6.9078515 c 0,-0.2842074 0.05821,-0.5553778 0.161396,-0.8030816 0.108479,-0.2581334 0.267229,-0.4901928 0.463021,-0.6831411 0.195792,-0.1929481 0.431271,-0.3493925 0.693208,-0.4562963 0.251354,-0.1042963 0.529167,-0.1590519 0.814917,-0.1590519 0.28575,0 0.563562,0.057362 0.814917,0.1590519 0.261937,0.1069038 0.497416,0.2633482 0.693208,0.4562963 0.195792,0.1929483 0.354542,0.4250077 0.463021,0.6831411 0.103187,0.2477038 0.161396,0.5214815 0.161396,0.8030816 0,0.2842075 -0.05821,0.555378 -0.161396,0.8030818 -0.108479,0.2581334 -0.267229,0.4901927 -0.463021,0.6831409 l -0.01058,0.01043 c -0.124358,0.1199412 -0.264587,0.2268449 -0.415399,0.3154968 -0.111125,0.065185 -0.227542,0.1199407 -0.34925,0.1616592 v 2.6413028 0.0365 h 7.485062 c 0.582084,0 1.137709,0.114725 1.645709,0.323318 0.529166,0.216414 1.00277,0.53191 1.399645,0.925629 0.396875,0.391113 0.719667,0.860445 0.939271,1.37932 0.211667,0.500621 0.328084,1.048178 0.328084,1.621807 v 0.430222 h 1.815041 c 0.251354,0 0.494771,0.04954 0.717021,0.140801 0.230188,0.09387 0.436563,0.232059 0.608542,0.40154 l 0.01058,0.01043 c 0.169333,0.169482 0.304271,0.367644 0.396875,0.589274 0.0926,0.219023 0.142875,0.456296 0.142875,0.706608 v 4.933216 c 0,0.247703 -0.05027,0.487584 -0.142875,0.706607 -0.09525,0.224237 -0.235479,0.430223 -0.407458,0.599704 v 0 c -0.338667,0.333748 -0.809625,0.542342 -1.325563,0.542342 h -1.817687 c -0.0079,0.550163 -0.124354,1.079465 -0.328084,1.561837 -0.219604,0.521482 -0.53975,0.988206 -0.93927,1.37932 -0.396875,0.39111 -0.873125,0.709215 -1.399646,0.925629 -0.508,0.208593 -1.063625,0.323319 -1.645709,0.323319 H 8.7484494 C 8.166366,29.060386 7.610741,28.94566 7.102741,28.737067 6.5735744,28.520657 6.0999702,28.20516 5.7030952,27.811441 5.3062202,27.42033 4.9834285,26.950997 4.7638244,26.432122 4.5600952,25.949752 4.4436785,25.420449 4.435741,24.870284 H 2.5545535 c -0.2513541,0 -0.4947708,-0.04954 -0.7170208,-0.140799 -0.2301875,-0.09387 -0.4365625,-0.232059 -0.6085416,-0.401541 l -0.010583,-0.01043 C 1.0490744,24.148034 0.91413686,23.94987 0.82153269,23.72824 c -0.0926042,-0.219022 -0.142875,-0.458904 -0.142875,-0.706608 v -4.933215 c 0,-0.247705 0.0502708,-0.487586 0.142875,-0.706607 0.09525,-0.226846 0.23547921,-0.430224 0.40745841,-0.599705 v 0 c 0.1719791,-0.169481 0.3783541,-0.307674 0.6085416,-0.401541 0.22225,-0.09125 0.4630208,-0.140799 0.7170208,-0.140799 z m 10.5595215,7.934342 c -0.03704,-0.02869 -0.06879,-0.05998 -0.0979,-0.09648 -0.08731,-0.104297 -0.132292,-0.224236 -0.134938,-0.346785 -0.0026,-0.122548 0.03704,-0.245096 0.119063,-0.352001 0.0291,-0.0365 0.06085,-0.0704 0.100542,-0.101688 0.137583,-0.112119 0.320145,-0.17209 0.500062,-0.174697 0.179917,-0.0026 0.359833,0.04954 0.502708,0.156444 0.492125,0.372861 0.978959,0.644031 1.4605,0.823941 0.47625,0.177305 0.947209,0.260741 1.412875,0.255527 0.468313,-0.0052 0.941917,-0.101689 1.426104,-0.2816 0.48948,-0.182518 0.981605,-0.456296 1.481667,-0.808296 0.148167,-0.104298 0.330729,-0.151231 0.510646,-0.143409 0.179917,0.0078 0.359833,0.0704 0.494771,0.187735 0.0344,0.03129 0.06615,0.06518 0.09525,0.104295 0.07937,0.109512 0.116416,0.234668 0.108479,0.357215 -0.0079,0.122549 -0.05821,0.242489 -0.148167,0.344178 -0.03175,0.0339 -0.06879,0.06779 -0.111125,0.09648 -0.627062,0.445867 -1.256771,0.784831 -1.894416,1.01689 -0.640292,0.232059 -1.288521,0.354608 -1.944688,0.362429 -0.658812,0.0078 -1.309687,-0.101689 -1.957916,-0.333749 -0.642934,-0.229451 -1.283226,-0.58145 -1.912934,-1.058607 z M 11.46572,16.200653 c 0.15875,0 0.317501,0.01564 0.468313,0.04694 0.153458,0.03129 0.304271,0.07561 0.449792,0.135586 0.148166,0.05997 0.288396,0.132978 0.418041,0.219023 0.127,0.08344 0.246063,0.177304 0.351896,0.2816 l 0.01587,0.01304 c 0.111125,0.109511 0.211667,0.229452 0.298979,0.359823 l 0.0053,0.0078 c 0.08467,0.125156 0.15875,0.260742 0.216958,0.404149 0.06086,0.143407 0.105834,0.292029 0.137584,0.443259 0.0291,0.15123 0.04763,0.305067 0.04763,0.461511 0,0.156445 -0.01587,0.31289 -0.04763,0.461512 -0.03175,0.15123 -0.07673,0.299852 -0.137584,0.445867 -0.06085,0.146014 -0.134937,0.284208 -0.22225,0.41197 -0.08996,0.132977 -0.1905,0.252918 -0.298979,0.359822 -0.219604,0.216416 -0.486833,0.393718 -0.785812,0.513659 -0.145521,0.05998 -0.296334,0.104297 -0.452438,0.135586 -0.153458,0.02868 -0.309562,0.04433 -0.468312,0.04433 -0.15875,0 -0.3175,-0.01564 -0.468313,-0.04433 -0.153458,-0.03129 -0.304271,-0.07561 -0.452437,-0.135586 -0.14817,-0.05994 -0.288399,-0.132947 -0.418045,-0.218992 C 9.9893452,20.458549 9.8676369,20.359469 9.7591577,20.252565 9.6480327,20.143054 9.547491,20.023113 9.4601785,19.892743 l -0.00529,-0.0078 c -0.084667,-0.125128 -0.15875,-0.260713 -0.2169584,-0.40412 -0.060854,-0.143408 -0.1058333,-0.29203 -0.1375833,-0.443259 -0.029104,-0.15123 -0.044979,-0.305067 -0.044979,-0.461511 0,-0.156446 0.015875,-0.312891 0.044979,-0.461513 0.03175,-0.151229 0.076729,-0.299852 0.1375833,-0.443259 0.060854,-0.146014 0.1349375,-0.284207 0.22225,-0.41197 0.089958,-0.132978 0.1905,-0.252918 0.2989792,-0.359823 0.111125,-0.10951 0.2328333,-0.208592 0.3651257,-0.294637 l 0.0079,-0.0052 c 0.127,-0.08344 0.264583,-0.156444 0.410104,-0.213808 0.14552,-0.05997 0.296333,-0.104296 0.449791,-0.135585 0.156105,-0.0339 0.314854,-0.04954 0.473604,-0.04954 z m 0.518584,1.142045 c -0.07937,-0.03129 -0.164042,-0.05737 -0.251354,-0.07561 -0.08467,-0.01564 -0.174625,-0.02608 -0.26723,-0.02608 -0.0926,0 -0.182562,0.0078 -0.267229,0.02608 -0.08996,0.01825 -0.174625,0.04171 -0.251354,0.07561 -0.08202,0.0339 -0.15875,0.073 -0.232833,0.122547 -0.07144,0.04694 -0.140229,0.104298 -0.206375,0.169483 -0.06615,0.06518 -0.121708,0.132977 -0.171979,0.203378 -0.05027,0.073 -0.08996,0.148622 -0.124354,0.226843 -0.03175,0.07823 -0.05821,0.161661 -0.07673,0.247705 -0.01587,0.08344 -0.02646,0.172088 -0.02646,0.263348 0,0.09126 0.0079,0.179911 0.02646,0.263349 0.01852,0.08865 0.04233,0.172088 0.07673,0.247703 0.0344,0.08083 0.07408,0.156445 0.124354,0.226845 0.04763,0.0704 0.105833,0.138192 0.171979,0.203377 0.06615,0.06518 0.134938,0.119941 0.206375,0.169481 0.07144,0.04694 0.150812,0.08865 0.232833,0.122549 l 0.0079,0.0052 c 0.07673,0.03129 0.156104,0.05475 0.243416,0.0704 0.08467,0.01564 0.174625,0.02608 0.267229,0.02608 0.0926,0 0.182563,-0.0078 0.26723,-0.02608 0.08996,-0.01825 0.171979,-0.04171 0.251354,-0.073 0.08202,-0.0339 0.15875,-0.07561 0.232833,-0.122549 0.07144,-0.04694 0.140229,-0.104295 0.206375,-0.169482 0.06615,-0.06518 0.121709,-0.132977 0.171979,-0.203376 0.05027,-0.073 0.08996,-0.148623 0.124355,-0.226846 0.03175,-0.07823 0.05821,-0.161659 0.07673,-0.247703 0.01587,-0.08344 0.02646,-0.17209 0.02646,-0.263349 0,-0.09126 -0.0079,-0.17991 -0.02646,-0.263348 -0.01852,-0.08865 -0.04233,-0.172089 -0.07673,-0.247703 -0.0344,-0.08083 -0.07408,-0.156445 -0.124355,-0.229452 -0.05023,-0.07302 -0.105795,-0.140814 -0.169295,-0.203393 l -0.01323,-0.01304 c -0.06085,-0.05737 -0.124354,-0.10951 -0.193146,-0.153836 -0.07408,-0.05215 -0.153458,-0.09387 -0.235479,-0.125156 z m 10.482791,-1.142045 c 0.15875,0 0.3175,0.01564 0.468313,0.04694 0.153458,0.03129 0.304271,0.07561 0.449792,0.135586 0.148166,0.05997 0.288395,0.132978 0.418041,0.219023 0.124354,0.08344 0.240771,0.174696 0.346604,0.278993 0.0053,0.0052 0.01323,0.01043 0.01852,0.01564 0.111125,0.109511 0.211667,0.229451 0.298979,0.359822 l 0.0053,0.0078 c 0.08467,0.125155 0.15875,0.260741 0.216958,0.404148 0.06086,0.143407 0.105834,0.29203 0.137584,0.443259 0.0291,0.151231 0.04498,0.305068 0.04498,0.461512 0,0.156444 -0.01588,0.312889 -0.04498,0.46151 -0.03175,0.151231 -0.07673,0.299853 -0.137584,0.445868 -0.06085,0.146015 -0.134937,0.284207 -0.22225,0.41197 -0.08996,0.132978 -0.1905,0.252918 -0.298979,0.359822 -0.111125,0.109511 -0.232833,0.208593 -0.365125,0.294638 l -0.0079,0.0052 c -0.129646,0.08344 -0.264584,0.156445 -0.410104,0.213809 -0.145521,0.05997 -0.296334,0.104295 -0.452438,0.135584 -0.153458,0.02868 -0.309562,0.04433 -0.468312,0.04433 -0.15875,0 -0.3175,-0.01564 -0.468313,-0.04433 -0.153458,-0.03129 -0.304271,-0.07561 -0.452437,-0.135584 -0.150857,-0.06255 -0.291086,-0.135559 -0.418086,-0.218995 l -0.01323,-0.01043 c -0.127,-0.08604 -0.246063,-0.179912 -0.351896,-0.284209 -0.111125,-0.109511 -0.211667,-0.229452 -0.298979,-0.359823 l -0.0053,-0.0078 c -0.08467,-0.125156 -0.15875,-0.260742 -0.216958,-0.404148 -0.06085,-0.143408 -0.105834,-0.29203 -0.137584,-0.44326 -0.0291,-0.15123 -0.04763,-0.305068 -0.04763,-0.461512 0,-0.156444 0.01587,-0.312889 0.04763,-0.46151 0.03175,-0.15123 0.07673,-0.299853 0.137584,-0.44326 0.06085,-0.146014 0.134937,-0.284207 0.22225,-0.41197 0.08996,-0.132979 0.1905,-0.252919 0.298979,-0.359823 0.108479,-0.106904 0.232833,-0.205984 0.365125,-0.294637 0.129646,-0.08604 0.269875,-0.159051 0.418042,-0.221629 0.14552,-0.05998 0.296333,-0.104297 0.449791,-0.135586 0.15875,-0.03129 0.314854,-0.04694 0.473604,-0.04694 z m 0.52123,1.142045 c -0.07938,-0.03129 -0.164042,-0.05737 -0.251355,-0.07561 -0.08467,-0.01564 -0.174625,-0.02608 -0.267229,-0.02608 -0.0926,0 -0.182562,0.0078 -0.267229,0.02608 -0.08996,0.01825 -0.174625,0.04171 -0.251354,0.07561 -0.08202,0.0339 -0.15875,0.073 -0.232833,0.122547 -0.07144,0.04694 -0.14023,0.104298 -0.206375,0.169483 -0.06615,0.06518 -0.121709,0.132977 -0.17198,0.203378 -0.05027,0.073 -0.08996,0.148622 -0.124354,0.226843 -0.03175,0.07823 -0.05821,0.161661 -0.07673,0.247705 -0.01588,0.08344 -0.02646,0.172088 -0.02646,0.263348 0,0.09126 0.0079,0.179911 0.02646,0.263349 0.01852,0.08865 0.04233,0.172088 0.07673,0.247703 0.0344,0.08083 0.07408,0.156445 0.124354,0.226845 0.04763,0.0704 0.105834,0.138192 0.17198,0.203377 0.06614,0.06518 0.134937,0.119941 0.206375,0.169481 0.07144,0.04694 0.150812,0.08865 0.232833,0.122549 l 0.0079,0.0052 c 0.07673,0.03129 0.156105,0.05475 0.243417,0.0704 0.08467,0.01564 0.174625,0.02608 0.267229,0.02608 0.0926,0 0.182563,-0.0078 0.267229,-0.02608 0.08996,-0.01825 0.17198,-0.04171 0.251355,-0.073 0.08202,-0.0339 0.15875,-0.07561 0.232833,-0.122549 0.07408,-0.04954 0.142875,-0.104295 0.206375,-0.166874 v 0 c 0.06615,-0.06518 0.121708,-0.132977 0.171979,-0.203377 0.05027,-0.073 0.08996,-0.148623 0.124354,-0.226846 0.03175,-0.07822 0.05821,-0.161658 0.07673,-0.247703 0.01588,-0.08344 0.02646,-0.172089 0.02646,-0.263348 0,-0.09125 -0.0079,-0.179911 -0.02646,-0.263348 -0.01852,-0.08865 -0.04233,-0.172089 -0.07673,-0.247704 -0.0344,-0.08083 -0.07408,-0.156444 -0.124354,-0.229453 -0.05027,-0.073 -0.105833,-0.1408 -0.169333,-0.203377 l -0.01323,-0.01304 c -0.06086,-0.05737 -0.124355,-0.109512 -0.193146,-0.153837 -0.07673,-0.05476 -0.153459,-0.09648 -0.235479,-0.127763 z M 5.4914285,16.761246 v 8.049068 c 0,0.432829 0.087313,0.844801 0.2460625,1.222875 0.1666875,0.391111 0.4074584,0.745719 0.7090834,1.042963 0.301625,0.297245 0.6614583,0.537126 1.0583333,0.698786 0.381,0.156444 0.8016875,0.242489 1.2408958,0.242489 H 25.184366 c 0.439209,0 0.85725,-0.08604 1.240896,-0.242489 0.396875,-0.164267 0.756708,-0.401541 1.058333,-0.698786 0.301625,-0.297244 0.545042,-0.651852 0.709084,-1.042963 0.15875,-0.375466 0.246062,-0.790046 0.246062,-1.222875 v -9.000772 c 0,-0.43283 -0.08731,-0.847408 -0.246062,-1.222876 -0.166688,-0.39111 -0.407459,-0.745716 -0.709084,-1.042962 -0.301625,-0.297245 -0.661458,-0.537127 -1.058333,-0.698784 -0.381,-0.156446 -0.801687,-0.24249 -1.240896,-0.24249 H 8.7484494 c -0.4392084,0 -0.85725,0.08604 -1.2408959,0.24249 -0.396875,0.164266 -0.7567083,0.401539 -1.0583333,0.698784 -0.301625,0.297246 -0.5450417,0.651852 -0.7090833,1.042962 -0.15875,0.375468 -0.2460625,0.790046 -0.2460625,1.222876 v 0.951704 z M 4.435741,17.28012 H 2.5545535 c -0.111125,0 -0.2169583,0.02087 -0.3122083,0.05997 -0.1005417,0.04171 -0.1905,0.101689 -0.2672292,0.177303 l -0.010583,0.0078 c -0.071438,0.07301 -0.1296458,0.159054 -0.1693333,0.252919 -0.039687,0.09387 -0.060854,0.198164 -0.060854,0.307675 v 4.933216 c 0,0.10951 0.021167,0.213808 0.060854,0.307675 0.042333,0.09908 0.1031875,0.187733 0.1799166,0.263347 0.1481667,0.146016 0.3518959,0.237276 0.5767917,0.237276 h 1.8811875 v -6.547204 z m 26.879021,0 H 29.49972 v 6.547202 h 1.815042 c 0.111125,0 0.216958,-0.02087 0.312208,-0.05997 0.100542,-0.04172 0.1905,-0.101689 0.26723,-0.177304 0.07673,-0.07561 0.137583,-0.164266 0.179916,-0.263348 0.03969,-0.09387 0.06086,-0.198163 0.06086,-0.307674 v -4.930608 c 0,-0.109511 -0.02117,-0.213808 -0.06086,-0.307675 -0.04233,-0.09908 -0.103187,-0.187734 -0.179916,-0.263349 v 0 c -0.07673,-0.07561 -0.166688,-0.135584 -0.26723,-0.177303 -0.09525,-0.0365 -0.201083,-0.05997 -0.312208,-0.05997 z"
       id="path1"
       style="stroke-width:0.262654" /></g></svg>
